<svg version="1.1" id="Layer_1" xmlns="http://www.w3.org/2000/svg" xmlns:xlink="http://www.w3.org/1999/xlink" x="0px" y="0px"
	 width="100%" viewBox="0 0 1600 1600" enable-background="new 0 0 1600 1600" xml:space="preserve">
<path fill="#FFFFFF" opacity="1.000000" stroke="none" 
	d="
M1060.000000,1601.000000 
	C708.166748,1601.000000 356.833557,1600.993042 5.500341,1601.093018 
	C1.752076,1601.094116 0.906430,1600.250244 0.907119,1596.500366 
	C1.004646,1066.167114 1.004603,535.833984 0.907329,5.500808 
	C0.906642,1.753716 1.748219,0.906347 5.499223,0.907038 
	C535.832397,1.004643 1066.165527,1.004618 1596.498779,0.907408 
	C1600.244751,0.906722 1601.093628,1.746633 1601.093018,5.498746 
	C1600.995239,535.831909 1600.995361,1066.165161 1601.092529,1596.498291 
	C1601.093140,1600.243164 1600.255249,1601.096436 1596.501709,1601.094116 
	C1417.834473,1600.986328 1239.167236,1601.000000 1060.000000,1601.000000 
z"/>
<path fill="#B9F2FD" opacity="1.000000" stroke="none" 
	d="
M841.426392,1264.197021 
	C842.041260,1266.090454 841.253052,1266.731689 839.609863,1266.981201 
	C829.475098,1268.520020 819.382324,1270.308960 809.129883,1271.021484 
	C801.007996,1271.586060 792.889160,1271.848755 784.750977,1272.059570 
	C769.927368,1272.443726 755.104065,1271.682007 740.393005,1270.663452 
	C725.478271,1269.630737 710.664307,1266.809326 695.954468,1263.396729 
	C681.483704,1260.039673 667.237915,1255.834473 652.799011,1252.379272 
	C635.144287,1248.154785 617.964172,1241.723389 601.260681,1234.448242 
	C584.777893,1227.269287 567.860107,1221.003296 552.134766,1212.156860 
	C530.260986,1199.851440 508.914551,1186.959595 489.604797,1170.555054 
	C473.065521,1156.504150 457.727448,1141.364868 444.533539,1124.425293 
	C434.293457,1111.278198 423.945404,1097.924805 416.583008,1082.618530 
	C411.086884,1071.192139 402.445282,1061.798706 393.929413,1052.513550 
	C384.237091,1041.945923 376.714752,1029.885132 368.727051,1018.085144 
	C363.346405,1010.136536 359.035461,1001.637024 354.187927,993.427734 
	C350.772614,987.643799 348.123260,981.348694 345.658478,975.075012 
	C340.950684,963.092041 336.103699,951.122375 332.268799,938.848999 
	C328.038910,925.311584 324.672546,911.471619 320.545868,897.916199 
	C316.619629,885.019348 313.935638,871.972351 311.388855,858.809143 
	C308.769592,845.271545 308.131195,831.566895 306.863770,817.895508 
	C305.583435,804.084595 305.560669,790.257629 306.225403,776.516357 
	C307.224701,755.859070 307.057526,735.153198 310.584320,714.560181 
	C312.956696,700.707764 314.679077,686.732178 318.021118,673.056396 
	C320.412933,663.269104 323.323242,653.623657 326.339081,643.995422 
	C329.504333,633.890259 333.088013,623.954590 337.260681,614.273193 
	C341.093597,605.380127 345.510712,596.687317 350.328003,588.283142 
	C356.406433,577.678894 362.363586,566.849792 369.789795,557.209045 
	C381.580933,541.901611 392.070953,525.603882 405.563629,511.526703 
	C413.096161,503.667816 420.118408,495.265778 428.128296,487.854706 
	C433.588715,482.802521 439.360992,478.057831 445.241852,473.495300 
	C460.646820,461.543640 476.044098,449.572784 491.722717,437.986176 
	C503.006012,429.647705 515.455750,423.166748 527.744446,416.401001 
	C537.033691,411.286621 546.344971,406.381439 556.110657,402.253998 
	C573.779175,394.786530 591.699463,388.115753 610.509827,384.119446 
	C616.905334,382.760773 622.465820,379.398956 628.207275,376.648285 
	C637.968933,371.971619 648.287048,368.840057 658.407166,365.324463 
	C677.336914,358.748505 696.886230,354.086975 716.477966,349.878204 
	C725.823120,347.870636 735.446106,347.040070 744.983337,346.069733 
	C760.623291,344.478485 776.274292,342.909180 791.918823,341.476349 
	C806.283447,340.160767 820.835754,340.525299 835.308411,341.564545 
	C843.901733,342.181580 852.543335,342.462982 860.998840,344.106415 
	C867.677368,345.404510 874.811890,344.887177 880.957703,349.145142 
	C879.241760,349.646149 877.625732,350.431244 875.815979,350.335815 
	C861.484863,349.579895 847.212830,351.417023 832.889465,351.384857 
	C826.738708,351.371063 820.639221,352.563324 814.529724,353.330719 
	C781.572205,357.470551 749.031189,363.740387 717.571289,374.500946 
	C682.970947,386.335693 649.737244,401.207092 618.640869,420.735809 
	C591.741211,437.628998 566.845581,456.898895 543.541626,478.514557 
	C518.580566,501.667267 497.104736,527.622070 477.950409,555.572876 
	C452.808014,592.261597 434.314606,632.261169 420.998657,674.596558 
	C414.857025,694.122559 410.443085,714.123962 406.993927,734.369019 
	C401.709351,765.386902 400.645050,796.600464 401.462402,827.908264 
	C401.791534,840.515198 403.362274,853.094299 404.827240,865.666382 
	C407.962799,892.575195 414.164612,918.752258 422.284271,944.495056 
	C432.598267,977.194763 446.891968,1008.135376 464.293213,1037.684082 
	C476.157013,1057.829590 489.576843,1076.897217 504.382660,1094.911499 
	C521.428467,1115.651245 540.382629,1134.650024 560.848450,1152.044556 
	C585.666443,1173.138184 612.243164,1191.654785 640.980042,1207.169922 
	C676.513916,1226.354858 713.695801,1241.179932 752.843933,1250.878174 
	C769.629211,1255.036499 786.741089,1257.719849 803.942200,1259.987305 
	C816.309998,1261.617676 828.852051,1261.391479 841.426392,1264.197021 
z"/>
<path fill="#161A1C" opacity="1.000000" stroke="none" 
	d="
M842.237427,1264.311401 
	C826.353882,1262.969727 810.918701,1261.853760 795.573059,1259.685303 
	C762.004028,1254.941772 729.465271,1246.453247 697.809692,1234.285889 
	C663.174927,1220.973389 630.485657,1203.980347 599.885315,1183.082886 
	C563.785339,1158.429565 531.823059,1129.077026 503.871124,1095.499512 
	C481.010040,1068.037231 461.718201,1038.124756 446.105835,1005.978821 
	C430.449524,973.742371 418.575714,940.142944 410.813721,905.069702 
	C399.798523,855.296875 397.568451,805.116150 403.283875,754.583069 
	C408.423004,709.145142 420.784668,665.624390 439.321167,623.818420 
	C459.115295,579.175964 485.514252,538.922852 518.403137,502.822144 
	C538.323364,480.956604 560.178955,461.320587 583.775940,443.538818 
	C616.917236,418.564880 652.935242,398.945648 691.412537,383.369629 
	C723.838013,370.243530 757.306458,361.642334 791.661072,355.818237 
	C821.007935,350.843109 850.544128,349.247955 880.621094,349.767029 
	C901.781494,350.595428 922.445312,352.851624 942.953430,356.311584 
	C970.369385,360.937042 997.356628,367.430176 1023.497314,376.986694 
	C1065.708130,392.418121 1105.501099,412.623840 1141.801758,439.231506 
	C1176.458496,464.634338 1207.472534,493.975067 1234.035278,527.839600 
	C1255.143799,554.750549 1273.161743,583.614441 1287.611328,614.647705 
	C1303.600464,648.987549 1315.705811,684.634949 1322.748413,721.887512 
	C1330.997314,765.521118 1333.018188,809.438477 1328.453003,853.678345 
	C1323.198608,904.597290 1309.694580,953.117676 1287.875732,999.432739 
	C1267.072876,1043.590942 1240.019287,1083.360107 1206.337524,1118.693359 
	C1172.672485,1154.009033 1134.734131,1183.622925 1091.843506,1207.053467 
	C1069.744019,1219.126221 1046.858765,1229.185181 1023.300842,1237.884766 
	C991.318054,1249.695679 958.318542,1257.054932 924.479858,1261.031250 
	C897.287781,1264.226440 870.057617,1265.499634 842.237427,1264.311401 
z"/>
<path fill="#B9F3FE" opacity="1.000000" stroke="none" 
	d="
M886.163513,1256.941406 
	C869.944153,1258.537598 853.958374,1258.062134 838.010925,1257.097168 
	C809.221741,1255.355347 780.622986,1251.762573 752.708862,1244.409058 
	C719.413208,1235.637695 686.998779,1224.330200 656.326477,1208.356567 
	C642.151917,1200.974731 627.992065,1193.589600 614.617615,1184.843384 
	C583.293152,1164.358765 554.646240,1140.648315 528.926208,1113.399658 
	C490.705109,1072.906860 461.141876,1026.889893 440.010010,975.390259 
	C424.445435,937.458435 414.282684,898.109192 409.846405,857.410217 
	C405.991577,822.045593 406.321014,786.647766 410.742310,751.244812 
	C417.688660,695.622803 434.868713,643.407837 461.621490,594.286011 
	C479.859528,560.798401 502.159454,530.222656 528.317078,502.443085 
	C561.913757,466.763123 600.171753,437.191833 643.098877,413.528290 
	C665.583984,401.133392 689.119507,391.237000 713.200134,382.557159 
	C772.676697,361.118774 834.185059,354.495789 896.991394,357.963715 
	C910.115234,358.688354 923.214050,360.045715 936.542847,362.517334 
	C937.054871,363.114502 937.329102,363.310913 937.902588,363.088257 
	C938.499695,362.789948 938.928345,362.714478 939.641724,362.819641 
	C942.056946,365.352539 945.167419,364.887756 947.822998,365.629272 
	C960.589050,369.194031 972.047424,375.668640 983.914917,381.289551 
	C996.302307,387.156769 1007.708984,394.616516 1019.525513,401.423676 
	C1028.239990,406.443817 1037.562256,410.619659 1046.595459,415.207977 
	C1062.513794,423.293488 1077.270386,433.181488 1091.612915,443.776794 
	C1107.407471,455.444763 1122.869873,467.518707 1137.505005,480.603546 
	C1146.816772,488.929016 1155.337280,498.047516 1163.574951,507.475494 
	C1179.093262,525.236023 1191.151001,545.261108 1203.710449,565.093872 
	C1215.940674,584.406616 1224.702881,605.165710 1233.469849,626.003845 
	C1239.468140,640.261230 1244.739502,654.886902 1249.142822,669.683167 
	C1253.876221,685.588684 1256.525024,702.043091 1258.378662,718.627319 
	C1260.513794,737.729919 1260.578857,756.851868 1260.203979,775.979492 
	C1259.667114,803.372864 1255.638550,830.348938 1248.902344,856.901062 
	C1245.913330,868.682800 1243.121460,880.512146 1239.911255,892.242432 
	C1235.819336,907.194092 1231.025024,921.869568 1224.464355,935.928284 
	C1221.362671,942.574585 1219.074707,949.542419 1216.168335,956.268616 
	C1210.665161,969.005127 1202.257324,980.176025 1196.524170,992.727722 
	C1192.308350,1001.957703 1187.674805,1010.887878 1182.735229,1019.742126 
	C1172.087646,1038.827148 1160.379639,1057.154663 1146.886108,1074.360107 
	C1136.199707,1087.986328 1125.141846,1101.269287 1113.427368,1114.037720 
	C1105.671143,1122.491821 1098.294556,1131.317627 1090.254761,1139.498901 
	C1079.172852,1150.776245 1067.251709,1161.125122 1054.933105,1171.086182 
	C1046.536133,1177.875977 1038.436646,1185.052856 1029.991943,1191.827026 
	C1023.056396,1197.390625 1015.332092,1201.628296 1008.027954,1206.554565 
	C993.219849,1216.541870 977.169556,1224.337646 960.936096,1231.586914 
	C947.440430,1237.613647 933.583801,1242.937866 919.385071,1247.209473 
	C908.436646,1250.503296 897.789185,1254.855835 886.163513,1256.941406 
z"/>
<path fill="#FCFDFD" opacity="1.000000" stroke="none" 
	d="
M886.364258,1257.346680 
	C890.984680,1253.546021 897.185974,1252.812500 902.933289,1251.163208 
	C921.146729,1245.937012 938.785706,1239.086182 956.487244,1232.478638 
	C966.055542,1228.907104 974.919434,1223.462402 984.139160,1218.940308 
	C998.229858,1212.029053 1011.086243,1203.047363 1024.268921,1194.661499 
	C1031.917725,1189.795776 1039.043457,1183.885254 1045.626587,1177.626465 
	C1052.837158,1170.771118 1060.889404,1164.996704 1068.267090,1158.400269 
	C1079.190552,1148.633301 1089.768433,1138.547852 1099.525635,1127.539551 
	C1104.551758,1121.868896 1109.620605,1116.171631 1114.784546,1110.592407 
	C1126.157104,1098.305176 1136.679565,1085.284912 1147.063477,1072.136841 
	C1157.049683,1059.492310 1165.531860,1045.892334 1174.140991,1032.345825 
	C1178.312134,1025.782471 1181.300415,1018.550232 1185.314941,1011.949646 
	C1193.978394,997.705505 1199.462769,981.811462 1208.879395,967.951904 
	C1213.516113,961.127380 1216.030273,953.092285 1219.232300,945.481750 
	C1222.685059,937.275330 1226.381714,929.158447 1229.487305,920.821899 
	C1234.506714,907.346924 1238.576538,893.559204 1241.935425,879.568359 
	C1245.953857,862.830139 1250.730225,846.266724 1253.430908,829.226013 
	C1255.529053,815.986938 1257.325317,802.751709 1258.241455,789.331360 
	C1259.161987,775.846863 1258.899414,762.404358 1258.949097,748.948181 
	C1259.009766,732.521606 1256.678345,716.307495 1254.338623,700.055420 
	C1250.885254,676.067932 1242.371826,653.763062 1233.855103,631.328430 
	C1227.210327,613.825134 1219.984253,596.601196 1211.345703,580.031921 
	C1206.232056,570.223755 1199.977051,561.003479 1194.109131,551.597534 
	C1187.817871,541.513062 1181.415405,531.471252 1174.024780,522.160156 
	C1160.536133,505.166687 1145.903076,489.327637 1129.261719,475.204285 
	C1119.685303,467.076874 1109.756104,459.430542 1099.945312,451.644257 
	C1089.995239,443.747528 1079.352539,436.711090 1068.891357,429.473938 
	C1056.354492,420.800720 1042.705444,413.813690 1029.007812,407.498352 
	C1015.950134,401.478149 1005.008545,392.199036 991.965942,386.453857 
	C975.551575,379.223389 960.163940,369.604553 942.523804,365.222992 
	C941.587646,364.990479 940.504883,364.875244 940.030396,363.351501 
	C960.100769,365.577728 979.837097,370.270386 999.228516,376.216003 
	C1027.561279,384.903046 1055.003540,395.976654 1081.242554,409.773468 
	C1112.273071,426.089783 1141.150879,445.700317 1167.695557,468.627747 
	C1186.879517,485.197388 1204.688477,503.178040 1220.870361,522.707520 
	C1252.097900,560.395203 1276.587402,602.053467 1294.331055,647.692749 
	C1306.319458,678.528076 1314.843506,710.313660 1319.434082,743.020447 
	C1325.085815,783.287109 1325.361938,823.668335 1320.376953,864.115356 
	C1315.333374,905.036377 1304.392822,944.333862 1288.382080,982.172485 
	C1277.030640,1008.999084 1262.999634,1034.480469 1246.441162,1058.543213 
	C1223.177734,1092.349731 1195.886719,1122.409424 1164.573120,1148.949585 
	C1137.415039,1171.967896 1108.052002,1191.464844 1076.345581,1207.658081 
	C1051.828003,1220.179688 1026.255371,1229.741211 1000.107178,1238.157715 
	C963.218384,1250.031616 925.301392,1255.281128 886.364258,1257.346680 
z"/>
<path fill="#FCFDFD" opacity="1.000000" stroke="none" 
	d="
M937.785156,362.747131 
	C937.808472,363.144836 937.613037,363.681458 937.010376,362.931152 
	C937.094727,362.709808 937.296997,362.669342 937.785156,362.747131 
z"/>
<path fill="#31281E" opacity="1.000000" stroke="none" 
	d="
M815.712036,872.480957 
	C797.663269,879.380737 780.134033,886.645752 761.461609,890.478943 
	C757.670471,891.257202 753.855469,891.553955 750.034546,891.254578 
	C741.887207,890.616150 736.930542,883.905579 738.522705,875.869141 
	C739.547974,870.694275 742.280640,866.305420 744.971008,861.887756 
	C755.085022,845.281067 768.147583,831.056824 781.237061,816.846252 
	C795.329895,801.546448 810.534424,787.246155 823.142151,770.611267 
	C828.370972,763.712280 831.258484,755.773621 832.604187,747.241760 
	C833.046082,744.439758 832.477783,743.262146 829.179871,742.852234 
	C788.488159,737.794373 753.948303,703.983093 752.001221,659.056702 
	C751.280090,642.418030 753.931030,626.301697 761.859192,611.652588 
	C789.126038,561.270569 857.139526,546.716003 901.546692,587.015808 
	C933.611084,616.114502 940.948486,661.187256 919.471680,698.698547 
	C904.140503,725.475891 880.645020,740.994446 849.407532,743.715393 
	C843.274536,744.249573 842.849243,744.655579 844.411072,750.673645 
	C848.361816,765.896240 857.560547,778.140564 866.945740,790.302917 
	C882.716492,810.740234 901.294739,828.771545 917.184998,849.096985 
	C921.800720,855.001038 925.939697,861.258484 929.285339,867.985535 
	C930.314575,870.055176 931.242859,872.260620 931.711609,874.509277 
	C934.248901,886.678589 927.820007,893.643677 915.423950,892.105713 
	C906.151550,890.955261 897.007019,889.074341 888.300659,885.589966 
	C879.666504,882.134521 871.156494,878.397278 862.692017,874.514954 
	C846.917053,867.279541 840.658081,854.563599 840.221313,838.131897 
	C840.079834,832.809265 840.389587,827.473877 840.523315,822.145081 
	C840.573181,820.156799 841.087708,818.277466 843.553223,818.504883 
	C845.776733,818.709961 845.781250,820.553345 845.698975,822.321411 
	C845.482422,826.975647 845.372070,831.635193 845.130066,836.287903 
	C844.262939,852.962891 851.982117,864.088867 866.933533,870.903687 
	C879.076477,876.438538 891.429810,881.366455 904.160278,885.352234 
	C908.485962,886.706665 912.978821,887.065857 917.463013,887.418701 
	C923.892700,887.924622 926.947998,884.926147 927.016174,878.335266 
	C927.081055,872.057556 923.280701,867.392090 920.353455,862.455994 
	C914.906921,853.271729 908.183960,845.001587 901.152954,836.968201 
	C888.219971,822.191467 874.372803,808.230225 862.132446,792.832214 
	C851.917175,779.981628 842.354736,766.839783 838.963806,750.296387 
	C838.917236,750.069092 838.521301,749.913452 837.952881,749.452026 
	C836.430908,753.713623 835.088257,757.888489 833.460815,761.949219 
	C829.213440,772.547546 821.200439,780.436218 813.853271,788.787354 
	C795.636780,809.492798 775.984253,828.935791 758.835693,850.563293 
	C753.222107,857.643188 747.201111,864.690918 744.228638,873.559875 
	C741.436218,881.891479 744.007935,885.861328 752.752380,885.744568 
	C764.745850,885.584534 775.925232,881.398621 787.135437,877.759460 
	C796.471497,874.728760 805.465820,870.637634 814.818420,867.667908 
	C827.064026,863.779480 832.275635,855.079041 832.804504,843.015198 
	C833.095764,836.370850 832.657288,829.695068 832.572083,823.033203 
	C832.543579,820.804932 831.641357,817.745972 835.106567,817.608337 
	C838.317749,817.480896 837.729248,820.487854 837.758728,822.517456 
	C837.848145,828.678467 837.721008,834.842529 837.797729,841.003845 
	C837.992493,856.631409 831.378479,867.489075 815.712036,872.480957 
z"/>
<path fill="#32271C" opacity="1.000000" stroke="none" 
	d="
M964.309082,1010.759277 
	C971.203125,1009.791565 977.599487,1008.674988 983.371948,1005.389038 
	C990.621033,1001.262512 991.865295,994.083801 986.244568,987.855774 
	C977.543762,978.214600 966.973083,970.997009 955.567566,964.996094 
	C941.874451,957.791565 927.593445,951.762878 913.804138,944.785767 
	C898.267273,936.924316 881.447266,932.597473 865.564270,925.799194 
	C854.672424,921.137207 843.892761,916.123108 837.453979,905.269653 
	C836.742310,904.070129 836.142761,903.635803 834.856323,904.950928 
	C827.294250,912.682007 817.374512,916.428955 807.580750,919.954163 
	C782.694092,928.912048 757.585754,937.251953 732.624817,946.006348 
	C722.442871,949.577332 712.147949,952.971130 702.938843,958.829956 
	C699.409302,961.075378 696.087646,963.601135 693.561035,966.964417 
	C690.500183,971.038818 691.393677,974.896301 695.881470,977.315674 
	C701.407532,980.294739 707.404358,981.585815 713.616699,982.025940 
	C737.641968,983.727966 761.569763,981.514526 785.516968,980.195862 
	C801.491516,979.316223 817.469910,978.488159 833.470581,978.756531 
	C843.156250,978.918884 852.814209,979.494629 861.332520,985.111633 
	C863.651367,986.640808 865.263794,988.657349 866.730225,990.891846 
	C867.424561,991.949951 867.727234,993.112000 866.737610,994.085510 
	C865.628235,995.176636 864.051758,995.224060 863.152039,994.116760 
	C854.446289,983.400940 841.999756,984.830811 830.395325,984.288208 
	C806.043213,983.149719 781.816284,985.825928 757.553284,987.412354 
	C739.085632,988.619934 720.576538,989.347595 702.318604,985.190125 
	C695.517517,983.641418 688.683594,981.494324 687.164185,973.423645 
	C685.617004,965.205322 691.077942,960.392639 697.091003,956.457703 
	C711.712158,946.889709 727.966797,940.993347 744.530090,935.806763 
	C769.153748,928.096069 793.615601,919.984253 817.441772,909.938538 
	C828.263062,905.376038 834.063477,898.546875 834.284607,886.727722 
	C834.424622,879.242126 835.284058,871.770203 835.812439,864.291565 
	C835.954102,862.285828 835.832581,859.826416 838.625000,859.878479 
	C841.482239,859.931702 841.196045,862.379883 841.133850,864.391846 
	C840.912964,871.547424 841.404541,878.816406 840.302917,885.834717 
	C837.854187,901.435303 845.813965,910.127563 858.572815,916.541870 
	C875.003052,924.801880 892.816589,929.530945 909.556030,936.946472 
	C931.936523,946.861023 954.201172,957.069275 974.551392,970.849854 
	C980.315063,974.752930 985.781799,979.211121 990.167053,984.743408 
	C999.121643,996.040222 995.585266,1007.337952 981.806335,1011.923828 
	C971.255615,1015.435364 960.311584,1016.422546 949.335815,1017.111084 
	C919.202454,1019.001404 889.026306,1017.270813 858.878113,1018.045105 
	C842.225037,1018.472839 825.555176,1018.827698 809.147888,1022.131836 
	C798.102173,1024.356323 787.957092,1028.080322 782.791687,1039.409546 
	C782.008972,1041.126343 780.540344,1042.605103 778.422668,1041.473755 
	C776.336060,1040.359009 777.491516,1038.578979 778.066956,1037.078735 
	C781.411255,1028.359497 788.696106,1024.016846 796.802124,1021.023499 
	C810.223633,1016.067261 824.370300,1014.808960 838.513855,1013.784668 
	C861.482056,1012.121216 884.483765,1012.941345 907.469604,1013.070312 
	C926.313232,1013.176086 945.120605,1012.924805 964.309082,1010.759277 
z"/>
<path fill="#A1212B" opacity="1.000000" stroke="none" 
	d="
M831.962158,810.920410 
	C828.583130,808.684570 825.939148,806.183777 824.062988,802.978394 
	C822.498474,800.305237 822.380554,797.480835 824.442871,795.071899 
	C826.612366,792.537598 829.731934,793.234009 831.684509,794.806885 
	C835.895020,798.198669 839.134949,798.320923 843.042114,794.272949 
	C844.943542,792.303101 848.465149,791.628357 850.883850,793.544128 
	C853.136902,795.328613 852.619568,798.357849 851.900940,800.992676 
	C850.175415,807.318970 845.365845,810.764038 839.908447,813.450745 
	C836.807922,814.977234 834.691406,812.299744 831.962158,810.920410 
z"/>
<path fill="#B9F2FC" opacity="1.000000" stroke="none" 
	d="
M925.756409,642.691772 
	C930.463196,685.387024 905.734436,722.782959 864.119080,735.428894 
	C831.691284,745.282837 803.585205,735.926147 780.531250,712.610352 
	C759.021729,690.856506 751.166016,663.829956 758.884521,633.928467 
	C769.999146,590.870728 809.726501,563.875610 853.243713,569.859985 
	C884.509155,574.159424 906.229980,592.220703 919.457031,620.745850 
	C922.648071,627.627563 924.330139,634.873901 925.756409,642.691772 
z"/>
<path fill="#2E2D23" opacity="1.000000" stroke="none" 
	d="
M899.974731,694.949219 
	C889.713745,703.861816 877.221985,705.212708 867.097534,698.630249 
	C865.595886,697.653931 862.985352,696.809143 864.699829,694.143677 
	C866.192444,691.822937 867.859741,693.488647 869.421814,694.292603 
	C880.070435,699.773132 888.684265,698.703186 896.825867,690.921814 
	C898.178040,689.629517 899.464661,687.022339 901.635193,688.941284 
	C904.213989,691.221252 901.834351,693.031860 899.974731,694.949219 
z"/>
<path fill="#2E2D23" opacity="1.000000" stroke="none" 
	d="
M812.805298,693.046509 
	C814.963928,692.341125 816.845886,689.174133 818.554077,692.297791 
	C819.846191,694.660706 817.474792,696.153809 815.651001,697.323669 
	C805.485046,703.844360 790.035217,701.374390 782.475281,692.071350 
	C781.389832,690.735657 780.168396,689.372437 781.745789,687.739929 
	C783.466492,685.959045 784.777405,687.549500 785.947144,688.633850 
	C793.800354,695.912964 802.491516,698.170654 812.805298,693.046509 
z"/>
<path fill="#382920" opacity="1.000000" stroke="none" 
	d="
M838.522461,722.539185 
	C834.996216,721.584595 833.347717,719.456726 833.512329,716.257141 
	C833.717896,712.260559 834.740723,708.416199 837.247131,705.198853 
	C837.819946,704.463501 839.104614,704.628540 840.018860,705.238586 
	C840.975952,705.877319 841.206604,706.890747 840.918152,707.868835 
	C840.359863,709.761597 839.471619,711.564636 839.003540,713.474304 
	C838.580750,715.199158 838.029846,717.323547 840.773804,717.731995 
	C842.818298,718.036316 843.897644,719.036499 843.373840,721.036316 
	C842.720764,723.529663 840.687683,722.946289 838.522461,722.539185 
z"/>
</svg>