<svg xmlns="http://www.w3.org/2000/svg" version="1.1" xmlns:xlink="http://www.w3.org/1999/xlink" xmlns:svgjs="http://svgjs.com/svgjs" width="1440" height="560" preserveAspectRatio="none" viewBox="0 0 1440 560"><g mask="url(&quot;#SvgjsMask3516&quot;)" fill="none"><rect width="1440" height="560" x="0" y="0" fill="url(#SvgjsLinearGradient3517)"></rect><path d="M688 11L687 245" stroke-width="10" stroke="url(#SvgjsLinearGradient3518)" stroke-linecap="round" class="Down"></path><path d="M439 71L438 409" stroke-width="6" stroke="url(#SvgjsLinearGradient3518)" stroke-linecap="round" class="Down"></path><path d="M742 258L741 602" stroke-width="10" stroke="url(#SvgjsLinearGradient3519)" stroke-linecap="round" class="Up"></path><path d="M745 495L744 723" stroke-width="8" stroke="url(#SvgjsLinearGradient3519)" stroke-linecap="round" class="Up"></path><path d="M585 250L584 561" stroke-width="8" stroke="url(#SvgjsLinearGradient3519)" stroke-linecap="round" class="Up"></path><path d="M850 27L849 188" stroke-width="10" stroke="url(#SvgjsLinearGradient3519)" stroke-linecap="round" class="Up"></path><path d="M933 396L932 585" stroke-width="10" stroke="url(#SvgjsLinearGradient3518)" stroke-linecap="round" class="Down"></path><path d="M604 112L603 -83" stroke-width="8" stroke="url(#SvgjsLinearGradient3519)" stroke-linecap="round" class="Up"></path><path d="M27 18L26 -363" stroke-width="10" stroke="url(#SvgjsLinearGradient3518)" stroke-linecap="round" class="Down"></path><path d="M723 558L722 707" stroke-width="8" stroke="url(#SvgjsLinearGradient3518)" stroke-linecap="round" class="Down"></path><path d="M924 522L923 858" stroke-width="8" stroke="url(#SvgjsLinearGradient3519)" stroke-linecap="round" class="Up"></path><path d="M404 53L403 -156" stroke-width="10" stroke="url(#SvgjsLinearGradient3518)" stroke-linecap="round" class="Down"></path><path d="M1051 341L1050 28" stroke-width="8" stroke="url(#SvgjsLinearGradient3519)" stroke-linecap="round" class="Up"></path><path d="M997 487L996 663" stroke-width="8" stroke="url(#SvgjsLinearGradient3519)" stroke-linecap="round" class="Up"></path><path d="M361 398L360 23" stroke-width="10" stroke="url(#SvgjsLinearGradient3518)" stroke-linecap="round" class="Down"></path><path d="M846 329L845 149" stroke-width="6" stroke="url(#SvgjsLinearGradient3519)" stroke-linecap="round" class="Up"></path><path d="M132 74L131 338" stroke-width="10" stroke="url(#SvgjsLinearGradient3518)" stroke-linecap="round" class="Down"></path><path d="M1063 267L1062 494" stroke-width="6" stroke="url(#SvgjsLinearGradient3518)" stroke-linecap="round" class="Down"></path><path d="M1254 288L1253 622" stroke-width="10" stroke="url(#SvgjsLinearGradient3519)" stroke-linecap="round" class="Up"></path><path d="M415 514L414 165" stroke-width="6" stroke="url(#SvgjsLinearGradient3518)" stroke-linecap="round" class="Down"></path><path d="M416 27L415 -265" stroke-width="8" stroke="url(#SvgjsLinearGradient3518)" stroke-linecap="round" class="Down"></path><path d="M81 494L80 230" stroke-width="6" stroke="url(#SvgjsLinearGradient3519)" stroke-linecap="round" class="Up"></path><path d="M149 37L148 247" stroke-width="8" stroke="url(#SvgjsLinearGradient3519)" stroke-linecap="round" class="Up"></path><path d="M168 346L167 629" stroke-width="10" stroke="url(#SvgjsLinearGradient3519)" stroke-linecap="round" class="Up"></path><path d="M873 495L872 97" stroke-width="10" stroke="url(#SvgjsLinearGradient3519)" stroke-linecap="round" class="Up"></path><path d="M1278 472L1277 873" stroke-width="6" stroke="url(#SvgjsLinearGradient3518)" stroke-linecap="round" class="Down"></path><path d="M228 525L227 724" stroke-width="8" stroke="url(#SvgjsLinearGradient3518)" stroke-linecap="round" class="Down"></path><path d="M974 149L973 446" stroke-width="10" stroke="url(#SvgjsLinearGradient3519)" stroke-linecap="round" class="Up"></path><path d="M287 126L286 -281" stroke-width="10" stroke="url(#SvgjsLinearGradient3519)" stroke-linecap="round" class="Up"></path><path d="M1217 291L1216 16" stroke-width="10" stroke="url(#SvgjsLinearGradient3519)" stroke-linecap="round" class="Up"></path><path d="M224 174L223 572" stroke-width="8" stroke="url(#SvgjsLinearGradient3519)" stroke-linecap="round" class="Up"></path><path d="M1289 455L1288 111" stroke-width="6" stroke="url(#SvgjsLinearGradient3519)" stroke-linecap="round" class="Up"></path><path d="M312 88L311 -257" stroke-width="10" stroke="url(#SvgjsLinearGradient3519)" stroke-linecap="round" class="Up"></path><path d="M1183 4L1182 -251" stroke-width="8" stroke="url(#SvgjsLinearGradient3519)" stroke-linecap="round" class="Up"></path><path d="M250 515L249 656" stroke-width="8" stroke="url(#SvgjsLinearGradient3519)" stroke-linecap="round" class="Up"></path><path d="M196 306L195 524" stroke-width="10" stroke="url(#SvgjsLinearGradient3518)" stroke-linecap="round" class="Down"></path></g><defs><mask id="SvgjsMask3516"><rect width="1440" height="560" fill="#ffffff"></rect></mask><linearGradient x1="0%" y1="50%" x2="100%" y2="50%" gradientUnits="userSpaceOnUse" id="SvgjsLinearGradient3517"><stop stop-color="#0e2a47" offset="0"></stop><stop stop-color="rgba(157, 181, 213, 1)" offset="1"></stop></linearGradient><linearGradient x1="0%" y1="0%" x2="0%" y2="100%" id="SvgjsLinearGradient3518"><stop stop-color="rgba(46, 177, 185, 0)" offset="0"></stop><stop stop-color="rgba(46, 177, 185, 1)" offset="1"></stop></linearGradient><linearGradient x1="0%" y1="100%" x2="0%" y2="0%" id="SvgjsLinearGradient3519"><stop stop-color="rgba(46, 177, 185, 0)" offset="0"></stop><stop stop-color="rgba(46, 177, 185, 1)" offset="1"></stop></linearGradient></defs></svg>