<svg xmlns="http://www.w3.org/2000/svg" version="1.1" xmlns:xlink="http://www.w3.org/1999/xlink" xmlns:svgjs="http://svgjs.com/svgjs" width="1400" height="800" preserveAspectRatio="none" viewBox="0 0 1400 800"><g mask="url(&quot;#SvgjsMask3571&quot;)" fill="none"><rect width="1400" height="800" x="0" y="0" fill="url(#SvgjsLinearGradient3572)"></rect><path d="M769 623L768 1104" stroke-width="8" stroke="url(#SvgjsLinearGradient3573)" stroke-linecap="round" class="Down"></path><path d="M172 613L171 992" stroke-width="8" stroke="url(#SvgjsLinearGradient3574)" stroke-linecap="round" class="Up"></path><path d="M89 407L88 135" stroke-width="10" stroke="url(#SvgjsLinearGradient3574)" stroke-linecap="round" class="Up"></path><path d="M93 151L92 -193" stroke-width="6" stroke="url(#SvgjsLinearGradient3573)" stroke-linecap="round" class="Down"></path><path d="M619 631L618 878" stroke-width="6" stroke="url(#SvgjsLinearGradient3573)" stroke-linecap="round" class="Down"></path><path d="M369 271L368 50" stroke-width="6" stroke="url(#SvgjsLinearGradient3573)" stroke-linecap="round" class="Down"></path><path d="M1341 25L1340 -188" stroke-width="8" stroke="url(#SvgjsLinearGradient3573)" stroke-linecap="round" class="Down"></path><path d="M1305 280L1304 -48" stroke-width="10" stroke="url(#SvgjsLinearGradient3573)" stroke-linecap="round" class="Down"></path><path d="M1131 725L1130 256" stroke-width="8" stroke="url(#SvgjsLinearGradient3574)" stroke-linecap="round" class="Up"></path><path d="M1389 501L1388 729" stroke-width="6" stroke="url(#SvgjsLinearGradient3574)" stroke-linecap="round" class="Up"></path><path d="M998 88L997 675" stroke-width="6" stroke="url(#SvgjsLinearGradient3574)" stroke-linecap="round" class="Up"></path><path d="M535 716L534 362" stroke-width="6" stroke="url(#SvgjsLinearGradient3573)" stroke-linecap="round" class="Down"></path><path d="M490 311L489 -165" stroke-width="10" stroke="url(#SvgjsLinearGradient3574)" stroke-linecap="round" class="Up"></path><path d="M1097 485L1096 239" stroke-width="8" stroke="url(#SvgjsLinearGradient3573)" stroke-linecap="round" class="Down"></path><path d="M143 86L142 340" stroke-width="8" stroke="url(#SvgjsLinearGradient3573)" stroke-linecap="round" class="Down"></path><path d="M1155 403L1154 26" stroke-width="8" stroke="url(#SvgjsLinearGradient3574)" stroke-linecap="round" class="Up"></path><path d="M820 715L819 1235" stroke-width="6" stroke="url(#SvgjsLinearGradient3573)" stroke-linecap="round" class="Down"></path><path d="M353 229L352 545" stroke-width="6" stroke="url(#SvgjsLinearGradient3574)" stroke-linecap="round" class="Up"></path><path d="M671 690L670 1231" stroke-width="8" stroke="url(#SvgjsLinearGradient3574)" stroke-linecap="round" class="Up"></path><path d="M640 373L639 622" stroke-width="10" stroke="url(#SvgjsLinearGradient3573)" stroke-linecap="round" class="Down"></path><path d="M1043 366L1042 848" stroke-width="6" stroke="url(#SvgjsLinearGradient3574)" stroke-linecap="round" class="Up"></path><path d="M564 606L563 368" stroke-width="6" stroke="url(#SvgjsLinearGradient3573)" stroke-linecap="round" class="Down"></path><path d="M410 482L409 -108" stroke-width="8" stroke="url(#SvgjsLinearGradient3574)" stroke-linecap="round" class="Up"></path><path d="M35 166L34 -256" stroke-width="8" stroke="url(#SvgjsLinearGradient3573)" stroke-linecap="round" class="Down"></path><path d="M418 502L417 301" stroke-width="10" stroke="url(#SvgjsLinearGradient3573)" stroke-linecap="round" class="Down"></path><path d="M1252 466L1251 893" stroke-width="10" stroke="url(#SvgjsLinearGradient3574)" stroke-linecap="round" class="Up"></path><path d="M1336 337L1335 920" stroke-width="6" stroke="url(#SvgjsLinearGradient3574)" stroke-linecap="round" class="Up"></path><path d="M1259 274L1258 636" stroke-width="10" stroke="url(#SvgjsLinearGradient3573)" stroke-linecap="round" class="Down"></path><path d="M490 798L489 1116" stroke-width="8" stroke="url(#SvgjsLinearGradient3573)" stroke-linecap="round" class="Down"></path><path d="M1100 665L1099 266" stroke-width="8" stroke="url(#SvgjsLinearGradient3573)" stroke-linecap="round" class="Down"></path><path d="M1273 8L1272 -443" stroke-width="10" stroke="url(#SvgjsLinearGradient3574)" stroke-linecap="round" class="Up"></path><path d="M563 593L562 353" stroke-width="8" stroke="url(#SvgjsLinearGradient3573)" stroke-linecap="round" class="Down"></path><path d="M415 180L414 546" stroke-width="8" stroke="url(#SvgjsLinearGradient3574)" stroke-linecap="round" class="Up"></path><path d="M266 188L265 -300" stroke-width="6" stroke="url(#SvgjsLinearGradient3573)" stroke-linecap="round" class="Down"></path><path d="M907 649L906 991" stroke-width="8" stroke="url(#SvgjsLinearGradient3574)" stroke-linecap="round" class="Up"></path></g><defs><mask id="SvgjsMask3571"><rect width="1400" height="800" fill="#ffffff"></rect></mask><linearGradient x1="0%" y1="50%" x2="100%" y2="50%" gradientUnits="userSpaceOnUse" id="SvgjsLinearGradient3572"><stop stop-color="#0e2a47" offset="0"></stop><stop stop-color="rgba(157, 181, 213, 1)" offset="1"></stop></linearGradient><linearGradient x1="0%" y1="0%" x2="0%" y2="100%" id="SvgjsLinearGradient3573"><stop stop-color="rgba(46, 177, 185, 0)" offset="0"></stop><stop stop-color="rgba(46, 177, 185, 1)" offset="1"></stop></linearGradient><linearGradient x1="0%" y1="100%" x2="0%" y2="0%" id="SvgjsLinearGradient3574"><stop stop-color="rgba(46, 177, 185, 0)" offset="0"></stop><stop stop-color="rgba(46, 177, 185, 1)" offset="1"></stop></linearGradient></defs></svg>